<?xml version="1.0" encoding="UTF-8"?>
<svg id="Layer_2" data-name="Layer 2" xmlns="http://www.w3.org/2000/svg" version="1.1" viewBox="0 0 1243 778.3">
  <defs>
    <style>
      .cls-1 {
        stroke-linejoin: round;
      }

      .cls-1, .cls-2 {
        stroke-linecap: round;
      }

      .cls-1, .cls-2, .cls-3 {
        fill: none;
        stroke: #231f20;
        stroke-width: 9.9px;
      }

      .cls-2, .cls-3 {
        stroke-miterlimit: 10;
      }
    </style>
  </defs>
  <path class="cls-3" d="M752.2,117.7c-39.3-16-82.3-24.8-127.5-24.8-95.1,0-181.1,39.1-242.6,102.2,65.1-5,129.8-14.7,193.6-28.4,59.5-12.7,118.7-29,176.4-49h0Z"/>
  <path class="cls-3" d="M905.4,241.8c-8.9,1.4-17.8,2.7-26.7,3.9-180.1,25.1-369.4,53.3-550.1,20.9-14.4,25.7-25.5,53.4-32.8,82.8-3.5,14.3-6.2,29-8,44-1.3,11.6-2.1,23.5-2.2,35.5,258.2-16.4,469.8-72.2,632.5-166.8-3.9-7-8.2-13.8-12.7-20.3Z"/>
  <path class="cls-3" d="M931.7,287.9c-1.8-3.7-3.5-7.5-5.5-11.1-1-2-2.1-3.8-3.1-5.7-78.9,46-168.8,83-269.1,110.5-109,29.9-232.3,49.2-368.3,57.7,0,3.6.2,7.4.4,11,152.3-11.4,304.4-33.6,449.8-79.8,67.5-21.9,133.5-48.8,195.8-82.5h0Z"/>
  <path class="cls-2" d="M963.9,431.5c0-38-6.4-74.4-17.9-108.5-192.2,116.3-427,159.8-655.5,166,3.6,21.6,9.4,42.5,16.9,62.5"/>
  <path class="cls-2" d="M470.3,579.3c45.9.5,83.9-1,129.4-3.4h0c16.6-1.1,41.8-3.3,58.4-4.4,16.5-1.6,41.7-4.4,58.3-6.1,16.5-2.1,41.5-5.6,58-7.9,22.3-3.6,50-7.9,72.2-12.1,34-6.4,70.9-14.1,105-22.2,4.4-15.8,7.7-32,9.8-48.7"/>
  <path class="cls-3" d="M325.1,590.8c16.4,30.9,37.4,58.8,62,83.1,178.3-17.5,355.8-43.1,529-89.4,4.5-1.2,9-2.5,13.5-3.6h0c5.9-12,11.1-24.5,15.6-37.4-89.6,18.6-180.2,32.5-271.2,40.6-102.8,9.8-205.6,9.8-308.4,4.8"/>
  <path class="cls-3" d="M372.4,205.6c-6.6,7.4-12.9,15-18.8,23,148.2,13.5,316.6-15.7,488.6-56.7-22.8-19-48.1-35.2-75.4-47.8-122.3,37.7-248.2,63.4-375.5,79.1-6.3.9-12.6,1.7-18.9,2.5h0Z"/>
  <path class="cls-3" d="M624.8,771.2c101.6,0,192.8-44.8,254.9-115.5-137.9,43.9-284.8,65.9-428.4,67.8,50.8,30.3,110.1,47.7,173.5,47.7h0Z"/>
  <path class="cls-3" d="M430.9,244c-29.9,0-58.4-1.4-85.5-4.1-2.4,3.5-4.7,7-7,10.6,171.3,37.7,374.8,13,558.2-21.2-12.9-17.3-27.4-33.2-43.3-47.7-78.4,18.8-156,35.5-230.8,46.6-69.6,10.5-133.3,15.8-191.7,15.8h0Z"/>
  <path class="cls-3" d="M391.3,203.1c127.3-15.7,253.1-41.4,375.5-79.1-4.8-2.2-9.7-4.3-14.6-6.3-57.8,20-116.9,36.3-176.4,49-63.8,13.8-128.4,23.5-193.6,28.4-3.4,3.4-6.5,6.9-9.8,10.4,6.3-.7,12.6-1.5,18.9-2.4h0Z"/>
  <path class="cls-3" d="M878.8,245.8c8.9-1.3,17.8-2.7,26.7-3.9-.8-1.2-1.5-2.3-2.3-3.5-2.2-3.1-4.3-6-6.5-9.1-183.5,34.2-386.9,58.8-558.2,21.2-3.4,5.3-6.6,10.6-9.7,16.2,180.6,32.4,369.9,4.2,550-20.9h0Z"/>
  <path class="cls-3" d="M353.6,228.5c-2.9,3.7-5.5,7.5-8.2,11.4,27.2,2.8,55.7,4.1,85.5,4.1,58.4,0,122.1-5.2,191.7-15.7,74.7-11.2,152.4-27.8,230.8-46.6-3.6-3.4-7.4-6.6-11.1-9.8-172,40.8-340.5,69.9-488.6,56.5h0Z"/>
  <path class="cls-3" d="M931.7,287.9c-62.3,33.7-128.2,60.6-195.8,82.3-145.4,46.2-297.5,68.5-449.8,79.8.7,13.2,2.2,26.2,4.3,38.9,228.4-6.2,463.2-49.7,655.5-166-4.1-12-9-23.8-14.3-35.1Z"/>
  <path class="cls-3" d="M923.1,270.9c-1.6-3-3.3-5.9-5-8.9-162.6,94.7-374.3,150.5-632.5,166.8v3.2c0,2.4,0,4.7,0,7,136-8.5,259.3-27.8,368.3-57.7,100.3-27.4,190.3-64.4,269.1-110.4Z"/>
  <path class="cls-3" d="M916,584.5c-173.2,46.3-350.7,71.9-529,89.4,19.3,18.9,40.8,35.6,64.2,49.6,143.6-1.9,290.5-24,428.4-67.8,19.7-22.5,36.6-47.6,49.9-74.8-4.5,1.2-9,2.4-13.5,3.6h0Z"/>
  <path class="cls-1" d="M363.2,588.7c103.6,5.2,207.2,5.2,310.8-4.6h0c91-8.1,181.6-22,271.2-40.6,2.3-6.7,4.4-13.4,6.3-20.3-34.2,8.2-71,15.8-105,22.2-22.2,4.2-49.9,8.5-72.2,12.1-16.5,2.2-41.5,5.7-58,7.9-16.6,1.7-41.7,4.5-58.3,6.1-16.6,1.2-41.9,3.4-58.4,4.4-44.3,2.4-81.4,3.1-126,2.8"/>
  <path class="cls-3" d="M1233.7,302.3c-9.5-51.5-141.9-73.7-330.5-63.9,8.5,12.2,16.3,25,23.2,38.3,98.5,2.3,163,19.6,168.9,51,5.5,30.4-45.1,67.9-131.2,103.8-81.7,34.1-195.3,66.6-322.7,89.9-127.5,23.4-245.3,33-333.8,30.1-93.1-3.2-153.9-20.3-159.4-50.7-5.7-31.3,48.6-70.5,140-107.4,1.7-15,4.3-29.7,8-44C115.9,407,0,474.7,9.3,526.1c9.2,50.2,134.9,72.6,315.6,64.7,95-4.1,205.2-16.7,321.8-38.1,116.5-21.4,224.1-48.6,314.4-78.4,172-56.5,281.7-121.9,272.6-172.1h0Z"/>
  <circle class="cls-3" cx="975.7" cy="58.7" r="50.5"/>
  <circle class="cls-3" cx="1026.1" cy="93" r="28.3" transform="translate(866.7 1111) rotate(-86.3)"/>
</svg>