<?xml version="1.0" encoding="UTF-8"?><svg id="a" xmlns="http://www.w3.org/2000/svg" xmlns:xlink="http://www.w3.org/1999/xlink" viewBox="0 0 2000 2000"><defs><style>.c{fill:none;}.c,.d,.e{stroke-width:0px;}.f{stroke-width:.15px;}.f,.g,.d,.h,.i,.j,.k,.l,.m{fill:#fff;}.f,.g,.h,.i,.j,.k,.l,.m{stroke:#bfbfbf;stroke-linejoin:round;}.g{stroke-width:.14px;}.e{fill:url(#b);opacity:.5;}.h{stroke-width:.55px;}.i{stroke-width:.27px;}.j{stroke-width:.35px;}.k{stroke-width:.55px;}.l{stroke-width:.21px;}.m{stroke-width:.27px;}</style><pattern id="b" x="0" y="0" width="600" height="600" patternUnits="userSpaceOnUse" viewBox="0 0 600 600"><rect class="c" width="600" height="600"/><path class="d" d="m449.06,565.39c0,8.49-2.83,11.33-11.33,11.33,8.49,0,11.33,2.83,11.33,11.33,0-8.49,2.83-11.33,11.33-11.33-8.49,0-11.33-2.83-11.33-11.33Z"/><path class="k" d="m449.06,565.39c0,8.49-2.83,11.33-11.33,11.33,8.49,0,11.33,2.83,11.33,11.33,0-8.49,2.83-11.33,11.33-11.33-8.49,0-11.33-2.83-11.33-11.33Z"/><path class="d" d="m502.02,591.69c0,3.26,1.09,4.35,4.35,4.35-3.26,0-4.35,1.09-4.35,4.35,0-3.26-1.09-4.35-4.35-4.35,3.26,0,4.35-1.09,4.35-4.35Z"/><path class="l" d="m502.02,591.69c0,3.26,1.09,4.35,4.35,4.35-3.26,0-4.35,1.09-4.35,4.35,0-3.26-1.09-4.35-4.35-4.35,3.26,0,4.35-1.09,4.35-4.35Z"/><path class="m" d="m555.3,574c-1.16-.91-2.89-1.28-5.36-1.28,2.47,0,4.2-.37,5.36-1.28-.33-.81-.97-1.66-1.92-2.61.95.95,1.8,1.59,2.61,1.92.91-1.16,1.28-2.89,1.28-5.36,0,2.47.37,4.2,1.28,5.36.81-.33,1.66-.97,2.61-1.92-.95.95-1.59,1.8-1.92,2.61,1.16.91,2.89,1.28,5.36,1.28-2.47,0-4.2.37-5.36,1.28.33.81.97,1.66,1.92,2.61-.95-.95-1.8-1.59-2.61-1.92-.91,1.16-1.28,2.89-1.28,5.36,0-2.47-.37-4.2-1.28-5.36-.81.33-1.66.97-2.61,1.92.95-.95,1.59-1.8,1.92-2.61Z"/><path class="d" d="m449.06,365.39c0,8.49-2.83,11.33-11.33,11.33,8.49,0,11.33,2.83,11.33,11.33,0-8.49,2.83-11.33,11.33-11.33-8.49,0-11.33-2.83-11.33-11.33Z"/><path class="k" d="m449.06,365.39c0,8.49-2.83,11.33-11.33,11.33,8.49,0,11.33,2.83,11.33,11.33,0-8.49,2.83-11.33,11.33-11.33-8.49,0-11.33-2.83-11.33-11.33Z"/><path class="g" d="m451.45,430.32c.61-.48,1.53-.68,2.85-.68-1.31,0-2.23-.2-2.85-.68.18-.43.52-.88,1.02-1.39-.51.51-.96.85-1.39,1.02-.48-.61-.68-1.53-.68-2.85,0,1.31-.2,2.23-.68,2.85-.43-.18-.88-.52-1.39-1.02.51.51.85.96,1.02,1.39-.61.48-1.53.68-2.85.68,1.31,0,2.23.2,2.85.68-.18.43-.52.88-1.02,1.39.51-.51.96-.85,1.39-1.02.48.61.68,1.53.68,2.85,0-1.31.2-2.23.68-2.85.43.18.88.52,1.39,1.02-.51-.51-.85-.96-1.02-1.39Z"/><path class="d" d="m579.94,472.77c0,2.4.8,3.21,3.21,3.21-2.4,0-3.21.8-3.21,3.21,0-2.4-.8-3.21-3.21-3.21,2.4,0,3.21-.8,3.21-3.21Z"/><path class="f" d="m579.94,472.77c0,2.4.8,3.21,3.21,3.21-2.4,0-3.21.8-3.21,3.21,0-2.4-.8-3.21-3.21-3.21,2.4,0,3.21-.8,3.21-3.21Z"/><path class="d" d="m430.41,488.24c0,5.5,1.83,7.33,7.33,7.33-5.5,0-7.33,1.83-7.33,7.33,0-5.5-1.83-7.33-7.33-7.33,5.5,0,7.33-1.83,7.33-7.33Z"/><path class="j" d="m430.41,488.24c0,5.5,1.83,7.33,7.33,7.33-5.5,0-7.33,1.83-7.33,7.33,0-5.5-1.83-7.33-7.33-7.33,5.5,0,7.33-1.83,7.33-7.33Z"/><path class="d" d="m502.02,391.69c0,3.26,1.09,4.35,4.35,4.35-3.26,0-4.35,1.09-4.35,4.35,0-3.26-1.09-4.35-4.35-4.35,3.26,0,4.35-1.09,4.35-4.35Z"/><path class="l" d="m502.02,391.69c0,3.26,1.09,4.35,4.35,4.35-3.26,0-4.35,1.09-4.35,4.35,0-3.26-1.09-4.35-4.35-4.35,3.26,0,4.35-1.09,4.35-4.35Z"/><path class="d" d="m570.21,457.18c0,4.21,1.4,5.61,5.61,5.61-4.21,0-5.61,1.4-5.61,5.61,0-4.21-1.4-5.61-5.61-5.61,4.21,0,5.61-1.4,5.61-5.61Z"/><path class="i" d="m570.21,457.18c0,4.21,1.4,5.61,5.61,5.61-4.21,0-5.61,1.4-5.61,5.61,0-4.21-1.4-5.61-5.61-5.61,4.21,0,5.61-1.4,5.61-5.61Z"/><path class="h" d="m506.74,482.94c-2.41-1.9-6.02-2.67-11.18-2.67,5.16,0,8.77-.78,11.18-2.67-.69-1.7-2.03-3.47-4.01-5.45,1.99,1.99,3.76,3.32,5.45,4.01,1.9-2.41,2.67-6.02,2.67-11.18,0,5.16.78,8.77,2.67,11.18,1.7-.69,3.47-2.03,5.45-4.01-1.99,1.99-3.32,3.76-4.01,5.45,2.41,1.9,6.02,2.67,11.18,2.67-5.16,0-8.77.78-11.18,2.67.69,1.7,2.03,3.47,4.01,5.45-1.99-1.99-3.76-3.32-5.45-4.01-1.9,2.41-2.67,6.02-2.67,11.18,0-5.16-.78-8.77-2.67-11.18-1.7.69-3.47,2.03-5.45,4.01,1.99-1.99,3.32-3.76,4.01-5.45Z"/><path class="m" d="m555.3,374c-1.16-.91-2.89-1.28-5.36-1.28,2.47,0,4.2-.37,5.36-1.28-.33-.81-.97-1.66-1.92-2.61.95.95,1.8,1.59,2.61,1.92.91-1.16,1.28-2.89,1.28-5.36,0,2.47.37,4.2,1.28,5.36.81-.33,1.66-.97,2.61-1.92-.95.95-1.59,1.8-1.92,2.61,1.16.91,2.89,1.28,5.36,1.28-2.47,0-4.2.37-5.36,1.28.33.81.97,1.66,1.92,2.61-.95-.95-1.8-1.59-2.61-1.92-.91,1.16-1.28,2.89-1.28,5.36,0-2.47-.37-4.2-1.28-5.36-.81.33-1.66.97-2.61,1.92.95-.95,1.59-1.8,1.92-2.61Z"/><path class="d" d="m249.06,432.06c0,8.49-2.83,11.33-11.33,11.33,8.49,0,11.33,2.83,11.33,11.33,0-8.49,2.83-11.33,11.33-11.33-8.49,0-11.33-2.83-11.33-11.33Z"/><path class="k" d="m249.06,432.06c0,8.49-2.83,11.33-11.33,11.33,8.49,0,11.33,2.83,11.33,11.33,0-8.49,2.83-11.33,11.33-11.33-8.49,0-11.33-2.83-11.33-11.33Z"/><path class="g" d="m251.45,496.99c.61-.48,1.53-.68,2.85-.68-1.31,0-2.23-.2-2.85-.68.18-.43.52-.88,1.02-1.39-.51.51-.96.85-1.39,1.02-.48-.61-.68-1.53-.68-2.85,0,1.31-.2,2.23-.68,2.85-.43-.18-.88-.52-1.39-1.02.51.51.85.96,1.02,1.39-.61.48-1.53.68-2.85.68,1.31,0,2.23.2,2.85.68-.18.43-.52.88-1.02,1.39.51-.51.96-.85,1.39-1.02.48.61.68,1.53.68,2.85,0-1.31.2-2.23.68-2.85.43.18.88.52,1.39,1.02-.51-.51-.85-.96-1.02-1.39Z"/><path class="d" d="m379.94,539.44c0,2.4.8,3.21,3.21,3.21-2.4,0-3.21.8-3.21,3.21,0-2.4-.8-3.21-3.21-3.21,2.4,0,3.21-.8,3.21-3.21Z"/><path class="f" d="m379.94,539.44c0,2.4.8,3.21,3.21,3.21-2.4,0-3.21.8-3.21,3.21,0-2.4-.8-3.21-3.21-3.21,2.4,0,3.21-.8,3.21-3.21Z"/><path class="d" d="m230.41,554.91c0,5.5,1.83,7.33,7.33,7.33-5.5,0-7.33,1.83-7.33,7.33,0-5.5-1.83-7.33-7.33-7.33,5.5,0,7.33-1.83,7.33-7.33Z"/><path class="j" d="m230.41,554.91c0,5.5,1.83,7.33,7.33,7.33-5.5,0-7.33,1.83-7.33,7.33,0-5.5-1.83-7.33-7.33-7.33,5.5,0,7.33-1.83,7.33-7.33Z"/><path class="d" d="m302.02,458.36c0,3.26,1.09,4.35,4.35,4.35-3.26,0-4.35,1.09-4.35,4.35,0-3.26-1.09-4.35-4.35-4.35,3.26,0,4.35-1.09,4.35-4.35Z"/><path class="l" d="m302.02,458.36c0,3.26,1.09,4.35,4.35,4.35-3.26,0-4.35,1.09-4.35,4.35,0-3.26-1.09-4.35-4.35-4.35,3.26,0,4.35-1.09,4.35-4.35Z"/><path class="d" d="m370.21,523.85c0,4.21,1.4,5.61,5.61,5.61-4.21,0-5.61,1.4-5.61,5.61,0-4.21-1.4-5.61-5.61-5.61,4.21,0,5.61-1.4,5.61-5.61Z"/><path class="i" d="m370.21,523.85c0,4.21,1.4,5.61,5.61,5.61-4.21,0-5.61,1.4-5.61,5.61,0-4.21-1.4-5.61-5.61-5.61,4.21,0,5.61-1.4,5.61-5.61Z"/><path class="h" d="m306.74,549.61c-2.41-1.9-6.02-2.67-11.18-2.67,5.16,0,8.77-.78,11.18-2.67-.69-1.7-2.03-3.47-4.01-5.45,1.99,1.99,3.76,3.32,5.45,4.01,1.9-2.41,2.67-6.02,2.67-11.18,0,5.16.78,8.77,2.67,11.18,1.7-.69,3.47-2.03,5.45-4.01-1.99,1.99-3.32,3.76-4.01,5.45,2.41,1.9,6.02,2.67,11.18,2.67-5.16,0-8.77.78-11.18,2.67.69,1.7,2.03,3.47,4.01,5.45-1.99-1.99-3.76-3.32-5.45-4.01-1.9,2.41-2.67,6.02-2.67,11.18,0-5.16-.78-8.77-2.67-11.18-1.7.69-3.47,2.03-5.45,4.01,1.99-1.99,3.32-3.76,4.01-5.45Z"/><path class="m" d="m355.3,440.67c-1.16-.91-2.89-1.28-5.36-1.28,2.47,0,4.2-.37,5.36-1.28-.33-.81-.97-1.66-1.92-2.61.95.95,1.8,1.59,2.61,1.92.91-1.16,1.28-2.89,1.28-5.36,0,2.47.37,4.2,1.28,5.36.81-.33,1.66-.97,2.61-1.92-.95.95-1.59,1.8-1.92,2.61,1.16.91,2.89,1.28,5.36,1.28-2.47,0-4.2.37-5.36,1.28.33.81.97,1.66,1.92,2.61-.95-.95-1.8-1.59-2.61-1.92-.91,1.16-1.28,2.89-1.28,5.36,0-2.47-.37-4.2-1.28-5.36-.81.33-1.66.97-2.61,1.92.95-.95,1.59-1.8,1.92-2.61Z"/><path class="d" d="m49.06,498.72c0,8.49-2.83,11.33-11.33,11.33,8.49,0,11.33,2.83,11.33,11.33,0-8.49,2.83-11.33,11.33-11.33-8.49,0-11.33-2.83-11.33-11.33Z"/><path class="k" d="m49.06,498.72c0,8.49-2.83,11.33-11.33,11.33,8.49,0,11.33,2.83,11.33,11.33,0-8.49,2.83-11.33,11.33-11.33-8.49,0-11.33-2.83-11.33-11.33Z"/><path class="g" d="m51.45,563.65c.61-.48,1.53-.68,2.85-.68-1.31,0-2.23-.2-2.85-.68.18-.43.52-.88,1.02-1.39-.51.51-.96.85-1.39,1.02-.48-.61-.68-1.53-.68-2.85,0,1.31-.2,2.23-.68,2.85-.43-.18-.88-.52-1.39-1.02.51.51.85.96,1.02,1.39-.61.48-1.53.68-2.85.68,1.31,0,2.23.2,2.85.68-.18.43-.52.88-1.02,1.39.51-.51.96-.85,1.39-1.02.48.61.68,1.53.68,2.85,0-1.31.2-2.23.68-2.85.43.18.88.52,1.39,1.02-.51-.51-.85-.96-1.02-1.39Z"/><path class="d" d="m102.02,525.03c0,3.26,1.09,4.35,4.35,4.35-3.26,0-4.35,1.09-4.35,4.35,0-3.26-1.09-4.35-4.35-4.35,3.26,0,4.35-1.09,4.35-4.35Z"/><path class="l" d="m102.02,525.03c0,3.26,1.09,4.35,4.35,4.35-3.26,0-4.35,1.09-4.35,4.35,0-3.26-1.09-4.35-4.35-4.35,3.26,0,4.35-1.09,4.35-4.35Z"/><path class="d" d="m170.21,590.51c0,4.21,1.4,5.61,5.61,5.61-4.21,0-5.61,1.4-5.61,5.61,0-4.21-1.4-5.61-5.61-5.61,4.21,0,5.61-1.4,5.61-5.61Z"/><path class="i" d="m170.21,590.51c0,4.21,1.4,5.61,5.61,5.61-4.21,0-5.61,1.4-5.61,5.61,0-4.21-1.4-5.61-5.61-5.61,4.21,0,5.61-1.4,5.61-5.61Z"/><path class="h" d="m106.74,616.28c-2.41-1.9-6.02-2.67-11.18-2.67,5.16,0,8.77-.78,11.18-2.67-.69-1.7-2.03-3.47-4.01-5.45,1.99,1.99,3.76,3.32,5.45,4.01,1.9-2.41,2.67-6.02,2.67-11.18,0,5.16.78,8.77,2.67,11.18,1.7-.69,3.47-2.03,5.45-4.01-1.99,1.99-3.32,3.76-4.01,5.45,2.41,1.9,6.02,2.67,11.18,2.67-5.16,0-8.77.78-11.18,2.67.69,1.7,2.03,3.47,4.01,5.45-1.99-1.99-3.76-3.32-5.45-4.01-1.9,2.41-2.67,6.02-2.67,11.18,0-5.16-.78-8.77-2.67-11.18-1.7.69-3.47,2.03-5.45,4.01,1.99-1.99,3.32-3.76,4.01-5.45Z"/><path class="m" d="m155.3,507.33c-1.16-.91-2.89-1.28-5.36-1.28,2.47,0,4.2-.37,5.36-1.28-.33-.81-.97-1.66-1.92-2.61.95.95,1.8,1.59,2.61,1.92.91-1.16,1.28-2.89,1.28-5.36,0,2.47.37,4.2,1.28,5.36.81-.33,1.66-.97,2.61-1.92-.95.95-1.59,1.8-1.92,2.61,1.16.91,2.89,1.28,5.36,1.28-2.47,0-4.2.37-5.36,1.28.33.81.97,1.66,1.92,2.61-.95-.95-1.8-1.59-2.61-1.92-.91,1.16-1.28,2.89-1.28,5.36,0-2.47-.37-4.2-1.28-5.36-.81.33-1.66.97-2.61,1.92.95-.95,1.59-1.8,1.92-2.61Z"/><path class="d" d="m449.06,165.39c0,8.49-2.83,11.33-11.33,11.33,8.49,0,11.33,2.83,11.33,11.33,0-8.49,2.83-11.33,11.33-11.33-8.49,0-11.33-2.83-11.33-11.33Z"/><path class="k" d="m449.06,165.39c0,8.49-2.83,11.33-11.33,11.33,8.49,0,11.33,2.83,11.33,11.33,0-8.49,2.83-11.33,11.33-11.33-8.49,0-11.33-2.83-11.33-11.33Z"/><path class="g" d="m451.45,230.32c.61-.48,1.53-.68,2.85-.68-1.31,0-2.23-.2-2.85-.68.18-.43.52-.88,1.02-1.39-.51.51-.96.85-1.39,1.02-.48-.61-.68-1.53-.68-2.85,0,1.31-.2,2.23-.68,2.85-.43-.18-.88-.52-1.39-1.02.51.51.85.96,1.02,1.39-.61.48-1.53.68-2.85.68,1.31,0,2.23.2,2.85.68-.18.43-.52.88-1.02,1.39.51-.51.96-.85,1.39-1.02.48.61.68,1.53.68,2.85,0-1.31.2-2.23.68-2.85.43.18.88.52,1.39,1.02-.51-.51-.85-.96-1.02-1.39Z"/><path class="d" d="m579.94,272.77c0,2.4.8,3.21,3.21,3.21-2.4,0-3.21.8-3.21,3.21,0-2.4-.8-3.21-3.21-3.21,2.4,0,3.21-.8,3.21-3.21Z"/><path class="f" d="m579.94,272.77c0,2.4.8,3.21,3.21,3.21-2.4,0-3.21.8-3.21,3.21,0-2.4-.8-3.21-3.21-3.21,2.4,0,3.21-.8,3.21-3.21Z"/><path class="d" d="m430.41,288.24c0,5.5,1.83,7.33,7.33,7.33-5.5,0-7.33,1.83-7.33,7.33,0-5.5-1.83-7.33-7.33-7.33,5.5,0,7.33-1.83,7.33-7.33Z"/><path class="j" d="m430.41,288.24c0,5.5,1.83,7.33,7.33,7.33-5.5,0-7.33,1.83-7.33,7.33,0-5.5-1.83-7.33-7.33-7.33,5.5,0,7.33-1.83,7.33-7.33Z"/><path class="d" d="m502.02,191.69c0,3.26,1.09,4.35,4.35,4.35-3.26,0-4.35,1.09-4.35,4.35,0-3.26-1.09-4.35-4.35-4.35,3.26,0,4.35-1.09,4.35-4.35Z"/><path class="l" d="m502.02,191.69c0,3.26,1.09,4.35,4.35,4.35-3.26,0-4.35,1.09-4.35,4.35,0-3.26-1.09-4.35-4.35-4.35,3.26,0,4.35-1.09,4.35-4.35Z"/><path class="d" d="m570.21,257.18c0,4.21,1.4,5.61,5.61,5.61-4.21,0-5.61,1.4-5.61,5.61,0-4.21-1.4-5.61-5.61-5.61,4.21,0,5.61-1.4,5.61-5.61Z"/><path class="i" d="m570.21,257.18c0,4.21,1.4,5.61,5.61,5.61-4.21,0-5.61,1.4-5.61,5.61,0-4.21-1.4-5.61-5.61-5.61,4.21,0,5.61-1.4,5.61-5.61Z"/><path class="h" d="m506.74,282.94c-2.41-1.9-6.02-2.67-11.18-2.67,5.16,0,8.77-.78,11.18-2.67-.69-1.7-2.03-3.47-4.01-5.45,1.99,1.99,3.76,3.32,5.45,4.01,1.9-2.41,2.67-6.02,2.67-11.18,0,5.16.78,8.77,2.67,11.18,1.7-.69,3.47-2.03,5.45-4.01-1.99,1.99-3.32,3.76-4.01,5.45,2.41,1.9,6.02,2.67,11.18,2.67-5.16,0-8.77.78-11.18,2.67.69,1.7,2.03,3.47,4.01,5.45-1.99-1.99-3.76-3.32-5.45-4.01-1.9,2.41-2.67,6.02-2.67,11.18,0-5.16-.78-8.77-2.67-11.18-1.7.69-3.47,2.03-5.45,4.01,1.99-1.99,3.32-3.76,4.01-5.45Z"/><path class="m" d="m555.3,174c-1.16-.91-2.89-1.28-5.36-1.28,2.47,0,4.2-.37,5.36-1.28-.33-.81-.97-1.66-1.92-2.61.95.95,1.8,1.59,2.61,1.92.91-1.16,1.28-2.89,1.28-5.36,0,2.47.37,4.2,1.28,5.36.81-.33,1.66-.97,2.61-1.92-.95.95-1.59,1.8-1.92,2.61,1.16.91,2.89,1.28,5.36,1.28-2.47,0-4.2.37-5.36,1.28.33.81.97,1.66,1.92,2.61-.95-.95-1.8-1.59-2.61-1.92-.91,1.16-1.28,2.89-1.28,5.36,0-2.47-.37-4.2-1.28-5.36-.81.33-1.66.97-2.61,1.92.95-.95,1.59-1.8,1.92-2.61Z"/><path class="d" d="m249.06,232.06c0,8.49-2.83,11.33-11.33,11.33,8.49,0,11.33,2.83,11.33,11.33,0-8.49,2.83-11.33,11.33-11.33-8.49,0-11.33-2.83-11.33-11.33Z"/><path class="k" d="m249.06,232.06c0,8.49-2.83,11.33-11.33,11.33,8.49,0,11.33,2.83,11.33,11.33,0-8.49,2.83-11.33,11.33-11.33-8.49,0-11.33-2.83-11.33-11.33Z"/><path class="g" d="m251.45,296.99c.61-.48,1.53-.68,2.85-.68-1.31,0-2.23-.2-2.85-.68.18-.43.52-.88,1.02-1.39-.51.51-.96.85-1.39,1.02-.48-.61-.68-1.53-.68-2.85,0,1.31-.2,2.23-.68,2.85-.43-.18-.88-.52-1.39-1.02.51.51.85.96,1.02,1.39-.61.48-1.53.68-2.85.68,1.31,0,2.23.2,2.85.68-.18.43-.52.88-1.02,1.39.51-.51.96-.85,1.39-1.02.48.61.68,1.53.68,2.85,0-1.31.2-2.23.68-2.85.43.18.88.52,1.39,1.02-.51-.51-.85-.96-1.02-1.39Z"/><path class="d" d="m379.94,339.44c0,2.4.8,3.21,3.21,3.21-2.4,0-3.21.8-3.21,3.21,0-2.4-.8-3.21-3.21-3.21,2.4,0,3.21-.8,3.21-3.21Z"/><path class="f" d="m379.94,339.44c0,2.4.8,3.21,3.21,3.21-2.4,0-3.21.8-3.21,3.21,0-2.4-.8-3.21-3.21-3.21,2.4,0,3.21-.8,3.21-3.21Z"/><path class="d" d="m230.41,354.91c0,5.5,1.83,7.33,7.33,7.33-5.5,0-7.33,1.83-7.33,7.33,0-5.5-1.83-7.33-7.33-7.33,5.5,0,7.33-1.83,7.33-7.33Z"/><path class="j" d="m230.41,354.91c0,5.5,1.83,7.33,7.33,7.33-5.5,0-7.33,1.83-7.33,7.33,0-5.5-1.83-7.33-7.33-7.33,5.5,0,7.33-1.83,7.33-7.33Z"/><path class="d" d="m302.02,258.36c0,3.26,1.09,4.35,4.35,4.35-3.26,0-4.35,1.09-4.35,4.35,0-3.26-1.09-4.35-4.35-4.35,3.26,0,4.35-1.09,4.35-4.35Z"/><path class="l" d="m302.02,258.36c0,3.26,1.09,4.35,4.35,4.35-3.26,0-4.35,1.09-4.35,4.35,0-3.26-1.09-4.35-4.35-4.35,3.26,0,4.35-1.09,4.35-4.35Z"/><path class="d" d="m370.21,323.85c0,4.21,1.4,5.61,5.61,5.61-4.21,0-5.61,1.4-5.61,5.61,0-4.21-1.4-5.61-5.61-5.61,4.21,0,5.61-1.4,5.61-5.61Z"/><path class="i" d="m370.21,323.85c0,4.21,1.4,5.61,5.61,5.61-4.21,0-5.61,1.4-5.61,5.61,0-4.21-1.4-5.61-5.61-5.61,4.21,0,5.61-1.4,5.61-5.61Z"/><path class="h" d="m306.74,349.61c-2.41-1.9-6.02-2.67-11.18-2.67,5.16,0,8.77-.78,11.18-2.67-.69-1.7-2.03-3.47-4.01-5.45,1.99,1.99,3.76,3.32,5.45,4.01,1.9-2.41,2.67-6.02,2.67-11.18,0,5.16.78,8.77,2.67,11.18,1.7-.69,3.47-2.03,5.45-4.01-1.99,1.99-3.32,3.76-4.01,5.45,2.41,1.9,6.02,2.67,11.18,2.67-5.16,0-8.77.78-11.18,2.67.69,1.7,2.03,3.47,4.01,5.45-1.99-1.99-3.76-3.32-5.45-4.01-1.9,2.41-2.67,6.02-2.67,11.18,0-5.16-.78-8.77-2.67-11.18-1.7.69-3.47,2.03-5.45,4.01,1.99-1.99,3.32-3.76,4.01-5.45Z"/><path class="m" d="m355.3,240.67c-1.16-.91-2.89-1.28-5.36-1.28,2.47,0,4.2-.37,5.36-1.28-.33-.81-.97-1.66-1.92-2.61.95.95,1.8,1.59,2.61,1.92.91-1.16,1.28-2.89,1.28-5.36,0,2.47.37,4.2,1.28,5.36.81-.33,1.66-.97,2.61-1.92-.95.95-1.59,1.8-1.92,2.61,1.16.91,2.89,1.28,5.36,1.28-2.47,0-4.2.37-5.36,1.28.33.81.97,1.66,1.92,2.61-.95-.95-1.8-1.59-2.61-1.92-.91,1.16-1.28,2.89-1.28,5.36,0-2.47-.37-4.2-1.28-5.36-.81.33-1.66.97-2.61,1.92.95-.95,1.59-1.8,1.92-2.61Z"/><path class="d" d="m49.06,298.72c0,8.49-2.83,11.33-11.33,11.33,8.49,0,11.33,2.83,11.33,11.33,0-8.49,2.83-11.33,11.33-11.33-8.49,0-11.33-2.83-11.33-11.33Z"/><path class="k" d="m49.06,298.72c0,8.49-2.83,11.33-11.33,11.33,8.49,0,11.33,2.83,11.33,11.33,0-8.49,2.83-11.33,11.33-11.33-8.49,0-11.33-2.83-11.33-11.33Z"/><path class="g" d="m51.45,363.65c.61-.48,1.53-.68,2.85-.68-1.31,0-2.23-.2-2.85-.68.18-.43.52-.88,1.02-1.39-.51.51-.96.85-1.39,1.02-.48-.61-.68-1.53-.68-2.85,0,1.31-.2,2.23-.68,2.85-.43-.18-.88-.52-1.39-1.02.51.51.85.96,1.02,1.39-.61.48-1.53.68-2.85.68,1.31,0,2.23.2,2.85.68-.18.43-.52.88-1.02,1.39.51-.51.96-.85,1.39-1.02.48.61.68,1.53.68,2.85,0-1.31.2-2.23.68-2.85.43.18.88.52,1.39,1.02-.51-.51-.85-.96-1.02-1.39Z"/><path class="d" d="m179.94,406.1c0,2.4.8,3.21,3.21,3.21-2.4,0-3.21.8-3.21,3.21,0-2.4-.8-3.21-3.21-3.21,2.4,0,3.21-.8,3.21-3.21Z"/><path class="f" d="m179.94,406.1c0,2.4.8,3.21,3.21,3.21-2.4,0-3.21.8-3.21,3.21,0-2.4-.8-3.21-3.21-3.21,2.4,0,3.21-.8,3.21-3.21Z"/><path class="d" d="m30.41,421.57c0,5.5,1.83,7.33,7.33,7.33-5.5,0-7.33,1.83-7.33,7.33,0-5.5-1.83-7.33-7.33-7.33,5.5,0,7.33-1.83,7.33-7.33Z"/><path class="j" d="m30.41,421.57c0,5.5,1.83,7.33,7.33,7.33-5.5,0-7.33,1.83-7.33,7.33,0-5.5-1.83-7.33-7.33-7.33,5.5,0,7.33-1.83,7.33-7.33Z"/><path class="d" d="m102.02,325.03c0,3.26,1.09,4.35,4.35,4.35-3.26,0-4.35,1.09-4.35,4.35,0-3.26-1.09-4.35-4.35-4.35,3.26,0,4.35-1.09,4.35-4.35Z"/><path class="l" d="m102.02,325.03c0,3.26,1.09,4.35,4.35,4.35-3.26,0-4.35,1.09-4.35,4.35,0-3.26-1.09-4.35-4.35-4.35,3.26,0,4.35-1.09,4.35-4.35Z"/><path class="d" d="m170.21,390.51c0,4.21,1.4,5.61,5.61,5.61-4.21,0-5.61,1.4-5.61,5.61,0-4.21-1.4-5.61-5.61-5.61,4.21,0,5.61-1.4,5.61-5.61Z"/><path class="i" d="m170.21,390.51c0,4.21,1.4,5.61,5.61,5.61-4.21,0-5.61,1.4-5.61,5.61,0-4.21-1.4-5.61-5.61-5.61,4.21,0,5.61-1.4,5.61-5.61Z"/><path class="h" d="m106.74,416.28c-2.41-1.9-6.02-2.67-11.18-2.67,5.16,0,8.77-.78,11.18-2.67-.69-1.7-2.03-3.47-4.01-5.45,1.99,1.99,3.76,3.32,5.45,4.01,1.9-2.41,2.67-6.02,2.67-11.18,0,5.16.78,8.77,2.67,11.18,1.7-.69,3.47-2.03,5.45-4.01-1.99,1.99-3.32,3.76-4.01,5.45,2.41,1.9,6.02,2.67,11.18,2.67-5.16,0-8.77.78-11.18,2.67.69,1.7,2.03,3.47,4.01,5.45-1.99-1.99-3.76-3.32-5.45-4.01-1.9,2.41-2.67,6.02-2.67,11.18,0-5.16-.78-8.77-2.67-11.18-1.7.69-3.47,2.03-5.45,4.01,1.99-1.99,3.32-3.76,4.01-5.45Z"/><path class="m" d="m155.3,307.33c-1.16-.91-2.89-1.28-5.36-1.28,2.47,0,4.2-.37,5.36-1.28-.33-.81-.97-1.66-1.92-2.61.95.95,1.8,1.59,2.61,1.92.91-1.16,1.28-2.89,1.28-5.36,0,2.47.37,4.2,1.28,5.36.81-.33,1.66-.97,2.61-1.92-.95.95-1.59,1.8-1.92,2.61,1.16.91,2.89,1.28,5.36,1.28-2.47,0-4.2.37-5.36,1.28.33.81.97,1.66,1.92,2.61-.95-.95-1.8-1.59-2.61-1.92-.91,1.16-1.28,2.89-1.28,5.36,0-2.47-.37-4.2-1.28-5.36-.81.33-1.66.97-2.61,1.92.95-.95,1.59-1.8,1.92-2.61Z"/><path class="g" d="m451.45,30.32c.61-.48,1.53-.68,2.85-.68-1.31,0-2.23-.2-2.85-.68.18-.43.52-.88,1.02-1.39-.51.51-.96.85-1.39,1.02-.48-.61-.68-1.53-.68-2.85,0,1.31-.2,2.23-.68,2.85-.43-.18-.88-.52-1.39-1.02.51.51.85.96,1.02,1.39-.61.48-1.53.68-2.85.68,1.31,0,2.23.2,2.85.68-.18.43-.52.88-1.02,1.39.51-.51.96-.85,1.39-1.02.48.61.68,1.53.68,2.85,0-1.31.2-2.23.68-2.85.43.18.88.52,1.39,1.02-.51-.51-.85-.96-1.02-1.39Z"/><path class="d" d="m579.94,72.77c0,2.4.8,3.21,3.21,3.21-2.4,0-3.21.8-3.21,3.21,0-2.4-.8-3.21-3.21-3.21,2.4,0,3.21-.8,3.21-3.21Z"/><path class="f" d="m579.94,72.77c0,2.4.8,3.21,3.21,3.21-2.4,0-3.21.8-3.21,3.21,0-2.4-.8-3.21-3.21-3.21,2.4,0,3.21-.8,3.21-3.21Z"/><path class="d" d="m430.41,88.24c0,5.5,1.83,7.33,7.33,7.33-5.5,0-7.33,1.83-7.33,7.33,0-5.5-1.83-7.33-7.33-7.33,5.5,0,7.33-1.83,7.33-7.33Z"/><path class="j" d="m430.41,88.24c0,5.5,1.83,7.33,7.33,7.33-5.5,0-7.33,1.83-7.33,7.33,0-5.5-1.83-7.33-7.33-7.33,5.5,0,7.33-1.83,7.33-7.33Z"/><path class="d" d="m502.02-8.31c0,3.26,1.09,4.35,4.35,4.35-3.26,0-4.35,1.09-4.35,4.35,0-3.26-1.09-4.35-4.35-4.35,3.26,0,4.35-1.09,4.35-4.35Z"/><path class="l" d="m502.02-8.31c0,3.26,1.09,4.35,4.35,4.35-3.26,0-4.35,1.09-4.35,4.35,0-3.26-1.09-4.35-4.35-4.35,3.26,0,4.35-1.09,4.35-4.35Z"/><path class="d" d="m570.21,57.18c0,4.21,1.4,5.61,5.61,5.61-4.21,0-5.61,1.4-5.61,5.61,0-4.21-1.4-5.61-5.61-5.61,4.21,0,5.61-1.4,5.61-5.61Z"/><path class="i" d="m570.21,57.18c0,4.21,1.4,5.61,5.61,5.61-4.21,0-5.61,1.4-5.61,5.61,0-4.21-1.4-5.61-5.61-5.61,4.21,0,5.61-1.4,5.61-5.61Z"/><path class="h" d="m506.74,82.94c-2.41-1.9-6.02-2.67-11.18-2.67,5.16,0,8.77-.78,11.18-2.67-.69-1.7-2.03-3.47-4.01-5.45,1.99,1.99,3.76,3.32,5.45,4.01,1.9-2.41,2.67-6.02,2.67-11.18,0,5.16.78,8.77,2.67,11.18,1.7-.69,3.47-2.03,5.45-4.01-1.99,1.99-3.32,3.76-4.01,5.45,2.41,1.9,6.02,2.67,11.18,2.67-5.16,0-8.77.78-11.18,2.67.69,1.7,2.03,3.47,4.01,5.45-1.99-1.99-3.76-3.32-5.45-4.01-1.9,2.41-2.67,6.02-2.67,11.18,0-5.16-.78-8.77-2.67-11.18-1.7.69-3.47,2.03-5.45,4.01,1.99-1.99,3.32-3.76,4.01-5.45Z"/><path class="d" d="m249.06,32.06c0,8.49-2.83,11.33-11.33,11.33,8.49,0,11.33,2.83,11.33,11.33,0-8.49,2.83-11.33,11.33-11.33-8.49,0-11.33-2.83-11.33-11.33Z"/><path class="k" d="m249.06,32.06c0,8.49-2.83,11.33-11.33,11.33,8.49,0,11.33,2.83,11.33,11.33,0-8.49,2.83-11.33,11.33-11.33-8.49,0-11.33-2.83-11.33-11.33Z"/><path class="g" d="m251.45,96.99c.61-.48,1.53-.68,2.85-.68-1.31,0-2.23-.2-2.85-.68.18-.43.52-.88,1.02-1.39-.51.51-.96.85-1.39,1.02-.48-.61-.68-1.53-.68-2.85,0,1.31-.2,2.23-.68,2.85-.43-.18-.88-.52-1.39-1.02.51.51.85.96,1.02,1.39-.61.48-1.53.68-2.85.68,1.31,0,2.23.2,2.85.68-.18.43-.52.88-1.02,1.39.51-.51.96-.85,1.39-1.02.48.61.68,1.53.68,2.85,0-1.31.2-2.23.68-2.85.43.18.88.52,1.39,1.02-.51-.51-.85-.96-1.02-1.39Z"/><path class="d" d="m379.94,139.44c0,2.4.8,3.21,3.21,3.21-2.4,0-3.21.8-3.21,3.21,0-2.4-.8-3.21-3.21-3.21,2.4,0,3.21-.8,3.21-3.21Z"/><path class="f" d="m379.94,139.44c0,2.4.8,3.21,3.21,3.21-2.4,0-3.21.8-3.21,3.21,0-2.4-.8-3.21-3.21-3.21,2.4,0,3.21-.8,3.21-3.21Z"/><path class="d" d="m230.41,154.91c0,5.5,1.83,7.33,7.33,7.33-5.5,0-7.33,1.83-7.33,7.33,0-5.5-1.83-7.33-7.33-7.33,5.5,0,7.33-1.83,7.33-7.33Z"/><path class="j" d="m230.41,154.91c0,5.5,1.83,7.33,7.33,7.33-5.5,0-7.33,1.83-7.33,7.33,0-5.5-1.83-7.33-7.33-7.33,5.5,0,7.33-1.83,7.33-7.33Z"/><path class="d" d="m302.02,58.36c0,3.26,1.09,4.35,4.35,4.35-3.26,0-4.35,1.09-4.35,4.35,0-3.26-1.09-4.35-4.35-4.35,3.26,0,4.35-1.09,4.35-4.35Z"/><path class="l" d="m302.02,58.36c0,3.26,1.09,4.35,4.35,4.35-3.26,0-4.35,1.09-4.35,4.35,0-3.26-1.09-4.35-4.35-4.35,3.26,0,4.35-1.09,4.35-4.35Z"/><path class="d" d="m370.21,123.85c0,4.21,1.4,5.61,5.61,5.61-4.21,0-5.61,1.4-5.61,5.61,0-4.21-1.4-5.61-5.61-5.61,4.21,0,5.61-1.4,5.61-5.61Z"/><path class="i" d="m370.21,123.85c0,4.21,1.4,5.61,5.61,5.61-4.21,0-5.61,1.4-5.61,5.61,0-4.21-1.4-5.61-5.61-5.61,4.21,0,5.61-1.4,5.61-5.61Z"/><path class="h" d="m306.74,149.61c-2.41-1.9-6.02-2.67-11.18-2.67,5.16,0,8.77-.78,11.18-2.67-.69-1.7-2.03-3.47-4.01-5.45,1.99,1.99,3.76,3.32,5.45,4.01,1.9-2.41,2.67-6.02,2.67-11.18,0,5.16.78,8.77,2.67,11.18,1.7-.69,3.47-2.03,5.45-4.01-1.99,1.99-3.32,3.76-4.01,5.45,2.41,1.9,6.02,2.67,11.18,2.67-5.16,0-8.77.78-11.18,2.67.69,1.7,2.03,3.47,4.01,5.45-1.99-1.99-3.76-3.32-5.45-4.01-1.9,2.41-2.67,6.02-2.67,11.18,0-5.16-.78-8.77-2.67-11.18-1.7.69-3.47,2.03-5.45,4.01,1.99-1.99,3.32-3.76,4.01-5.45Z"/><path class="m" d="m355.3,40.67c-1.16-.91-2.89-1.28-5.36-1.28,2.47,0,4.2-.37,5.36-1.28-.33-.81-.97-1.66-1.92-2.61.95.95,1.8,1.59,2.61,1.92.91-1.16,1.28-2.89,1.28-5.36,0,2.47.37,4.2,1.28,5.36.81-.33,1.66-.97,2.61-1.92-.95.95-1.59,1.8-1.92,2.61,1.16.91,2.89,1.28,5.36,1.28-2.47,0-4.2.37-5.36,1.28.33.81.97,1.66,1.92,2.61-.95-.95-1.8-1.59-2.61-1.92-.91,1.16-1.28,2.89-1.28,5.36,0-2.47-.37-4.2-1.28-5.36-.81.33-1.66.97-2.61,1.92.95-.95,1.59-1.8,1.92-2.61Z"/><path class="d" d="m49.06,98.72c0,8.49-2.83,11.33-11.33,11.33,8.49,0,11.33,2.83,11.33,11.33,0-8.49,2.83-11.33,11.33-11.33-8.49,0-11.33-2.83-11.33-11.33Z"/><path class="k" d="m49.06,98.72c0,8.49-2.83,11.33-11.33,11.33,8.49,0,11.33,2.83,11.33,11.33,0-8.49,2.83-11.33,11.33-11.33-8.49,0-11.33-2.83-11.33-11.33Z"/><path class="g" d="m51.45,163.65c.61-.48,1.53-.68,2.85-.68-1.31,0-2.23-.2-2.85-.68.18-.43.52-.88,1.02-1.39-.51.51-.96.85-1.39,1.02-.48-.61-.68-1.53-.68-2.85,0,1.31-.2,2.23-.68,2.85-.43-.18-.88-.52-1.39-1.02.51.51.85.96,1.02,1.39-.61.48-1.53.68-2.85.68,1.31,0,2.23.2,2.85.68-.18.43-.52.88-1.02,1.39.51-.51.96-.85,1.39-1.02.48.61.68,1.53.68,2.85,0-1.31.2-2.23.68-2.85.43.18.88.52,1.39,1.02-.51-.51-.85-.96-1.02-1.39Z"/><path class="d" d="m179.94,206.1c0,2.4.8,3.21,3.21,3.21-2.4,0-3.21.8-3.21,3.21,0-2.4-.8-3.21-3.21-3.21,2.4,0,3.21-.8,3.21-3.21Z"/><path class="f" d="m179.94,206.1c0,2.4.8,3.21,3.21,3.21-2.4,0-3.21.8-3.21,3.21,0-2.4-.8-3.21-3.21-3.21,2.4,0,3.21-.8,3.21-3.21Z"/><path class="d" d="m30.41,221.57c0,5.5,1.83,7.33,7.33,7.33-5.5,0-7.33,1.83-7.33,7.33,0-5.5-1.83-7.33-7.33-7.33,5.5,0,7.33-1.83,7.33-7.33Z"/><path class="j" d="m30.41,221.57c0,5.5,1.83,7.33,7.33,7.33-5.5,0-7.33,1.83-7.33,7.33,0-5.5-1.83-7.33-7.33-7.33,5.5,0,7.33-1.83,7.33-7.33Z"/><path class="d" d="m102.02,125.03c0,3.26,1.09,4.35,4.35,4.35-3.26,0-4.35,1.09-4.35,4.35,0-3.26-1.09-4.35-4.35-4.35,3.26,0,4.35-1.09,4.35-4.35Z"/><path class="l" d="m102.02,125.03c0,3.26,1.09,4.35,4.35,4.35-3.26,0-4.35,1.09-4.35,4.35,0-3.26-1.09-4.35-4.35-4.35,3.26,0,4.35-1.09,4.35-4.35Z"/><path class="d" d="m170.21,190.51c0,4.21,1.4,5.61,5.61,5.61-4.21,0-5.61,1.4-5.61,5.61,0-4.21-1.4-5.61-5.61-5.61,4.21,0,5.61-1.4,5.61-5.61Z"/><path class="i" d="m170.21,190.51c0,4.21,1.4,5.61,5.61,5.61-4.21,0-5.61,1.4-5.61,5.61,0-4.21-1.4-5.61-5.61-5.61,4.21,0,5.61-1.4,5.61-5.61Z"/><path class="h" d="m106.74,216.28c-2.41-1.9-6.02-2.67-11.18-2.67,5.16,0,8.77-.78,11.18-2.67-.69-1.7-2.03-3.47-4.01-5.45,1.99,1.99,3.76,3.32,5.45,4.01,1.9-2.41,2.67-6.02,2.67-11.18,0,5.16.78,8.77,2.67,11.18,1.7-.69,3.47-2.03,5.45-4.01-1.99,1.99-3.32,3.76-4.01,5.45,2.41,1.9,6.02,2.67,11.18,2.67-5.16,0-8.77.78-11.18,2.67.69,1.7,2.03,3.47,4.01,5.45-1.99-1.99-3.76-3.32-5.45-4.01-1.9,2.41-2.67,6.02-2.67,11.18,0-5.16-.78-8.77-2.67-11.18-1.7.69-3.47,2.03-5.45,4.01,1.99-1.99,3.32-3.76,4.01-5.45Z"/><path class="m" d="m155.3,107.33c-1.16-.91-2.89-1.28-5.36-1.28,2.47,0,4.2-.37,5.36-1.28-.33-.81-.97-1.66-1.92-2.61.95.95,1.8,1.59,2.61,1.92.91-1.16,1.28-2.89,1.28-5.36,0,2.47.37,4.2,1.28,5.36.81-.33,1.66-.97,2.61-1.92-.95.95-1.59,1.8-1.92,2.61,1.16.91,2.89,1.28,5.36,1.28-2.47,0-4.2.37-5.36,1.28.33.81.97,1.66,1.92,2.61-.95-.95-1.8-1.59-2.61-1.92-.91,1.16-1.28,2.89-1.28,5.36,0-2.47-.37-4.2-1.28-5.36-.81.33-1.66.97-2.61,1.92.95-.95,1.59-1.8,1.92-2.61Z"/><path class="d" d="m179.94,6.1c0,2.4.8,3.21,3.21,3.21-2.4,0-3.21.8-3.21,3.21,0-2.4-.8-3.21-3.21-3.21,2.4,0,3.21-.8,3.21-3.21Z"/><path class="f" d="m179.94,6.1c0,2.4.8,3.21,3.21,3.21-2.4,0-3.21.8-3.21,3.21,0-2.4-.8-3.21-3.21-3.21,2.4,0,3.21-.8,3.21-3.21Z"/><path class="d" d="m30.41,21.57c0,5.5,1.83,7.33,7.33,7.33-5.5,0-7.33,1.83-7.33,7.33,0-5.5-1.83-7.33-7.33-7.33,5.5,0,7.33-1.83,7.33-7.33Z"/><path class="j" d="m30.41,21.57c0,5.5,1.83,7.33,7.33,7.33-5.5,0-7.33,1.83-7.33,7.33,0-5.5-1.83-7.33-7.33-7.33,5.5,0,7.33-1.83,7.33-7.33Z"/><path class="d" d="m170.21-9.49c0,4.21,1.4,5.61,5.61,5.61-4.21,0-5.61,1.4-5.61,5.61,0-4.21-1.4-5.61-5.61-5.61,4.21,0,5.61-1.4,5.61-5.61Z"/><path class="i" d="m170.21-9.49c0,4.21,1.4,5.61,5.61,5.61-4.21,0-5.61,1.4-5.61,5.61,0-4.21-1.4-5.61-5.61-5.61,4.21,0,5.61-1.4,5.61-5.61Z"/><path class="h" d="m106.74,16.28c-2.41-1.9-6.02-2.67-11.18-2.67,5.16,0,8.77-.78,11.18-2.67-.69-1.7-2.03-3.47-4.01-5.45,1.99,1.99,3.76,3.32,5.45,4.01,1.9-2.41,2.67-6.02,2.67-11.18,0,5.16.78,8.77,2.67,11.18,1.7-.69,3.47-2.03,5.45-4.01-1.99,1.99-3.32,3.76-4.01,5.45,2.41,1.9,6.02,2.67,11.18,2.67-5.16,0-8.77.78-11.18,2.67.69,1.7,2.03,3.47,4.01,5.45-1.99-1.99-3.76-3.32-5.45-4.01-1.9,2.41-2.67,6.02-2.67,11.18,0-5.16-.78-8.77-2.67-11.18-1.7.69-3.47,2.03-5.45,4.01,1.99-1.99,3.32-3.76,4.01-5.45Z"/></pattern></defs><rect class="e" width="2000" height="2000"/></svg>